<?xml version="1.0" encoding="UTF-8" standalone="no"?>
<!DOCTYPE svg  PUBLIC '-//W3C//DTD SVG 1.1//EN'  'http://www.w3.org/Graphics/SVG/1.1/DTD/svg11.dtd'>
<svg stroke-linejoin="round" xmlns="http://www.w3.org/2000/svg" fill-rule="evenodd" xml:space="preserve" height="136px" width="360px" version="1.1" stroke-miterlimit="1.4142" clip-rule="evenodd" class="logo-white" xmlns:xlink="http://www.w3.org/1999/xlink">
        <g id="Layer1">
                <path class="logo-white" fill="white" d="m181.13 110.11c-4.72 0-8.26-3.56-6.6-8.76l3.22-10.034c2.46-7.678 6.99-10.957 14.34-10.957h24.71l-2.39 7.438h-28.11l-4.76 14.873h28.11l-2.38 7.44h-26.14z" fill-rule="nonzero"/>
                <path class="logo-white" fill="white" d="m162.05 96.111c0.9-1.35 4.84-8.1-0.59-10.651-2.47-1.165-5.07-0.949-8.47-1.116-6.62-0.325-17.77 2.298-24.09 4.908-19.48 8.038-20.94 9.5-39.729 23.228-11.25 9.78-11.925 10.68-16.301 15.31-0.65 0.74-0.911 1-3.525 3.62 2.614-5.55 3.118-6.17 7.564-11.4 16.762-19.68 43.311-34.533 60.021-39.903 9.14-2.94 36.19-8.891 36.95 5.883l-0.16 2.463c-0.15 1.967-1.03 4.896-2.15 7.033l-2.21 3.662c-2.02 2.022-2.92 2.812-4.38 3.942-2.48 2.02-11.1 7.26-18.1 11.29 2.57-3.63 6.28-7.36 7.97-9.38 1.57-1.69 3.49-3.71 4.72-5.289" fill-rule="nonzero"/>
                <path class="logo-white" fill="white" d="m111.08 100.1l53.26-2.265 15.39 1.852-2.5 1.463-11.13 1.16-7.05 0.48-23.98-1.35-23.99-1.34z" fill-rule="nonzero"/>
                <path class="logo-white" fill="white" d="m238.26 87.974l-7.13 22.236h-7.49l6.97-22.116h-14.03l2.46-7.624h35.22l-2.42 7.504h-13.58z" fill-rule="nonzero"/>
                <path class="logo-white" fill="white" d="m134.72 48.847l-7.13 22.239h-7.48l6.97-22.119h-14.04l2.46-7.625h35.22l-2.42 7.505h-13.58z" fill-rule="nonzero"/>
                <path class="logo-white" fill="white" d="m170.68 71.086l3.64-11.307h-19.82l-3.64 11.307h-7.8l9.61-29.807h7.39l-3.52 10.938h20.3l3.53-10.938h7.77l-9.6 29.807h-7.86z" fill-rule="nonzero"/>
                <path class="logo-white" fill="white" d="m189.9 71.086c-4.89 0-7.79-4.32-6.23-9.16l6.68-20.709h7.74l-7.12 22.068h27.98l-2.51 7.801h-26.54z" fill-rule="nonzero"/>
                <path class="logo-white" fill="white" d="m228.66 71.217c-5.45 0-9.16-3.889-7.33-9.593l3.5-10.847c2.03-6.287 7.65-9.56 13.58-9.56h25.21l-2.46 7.625h-28.17l-1.13 3.506h28.17l-2.49 7.738-28 0.079-1 3.115h27.97l-2.56 7.937h-25.29z" fill-rule="nonzero"/>
                <path class="logo-white" fill="white" d="m281.55 71.217c-5.44 0-9.16-3.889-7.32-9.593l3.49-10.847c2.03-6.287 7.66-9.56 13.58-9.56h25.21l-2.45 7.625h-28.18l-1.13 3.506h28.18l-2.5 7.738-28 0.079-1 3.115h27.97l-2.56 7.937h-25.29z" fill-rule="nonzero"/>
                <path class="logo-white" fill="white" d="m246.8 110.29l9.61-29.993h8l-9.61 29.993h-8z" fill-rule="nonzero"/>
                <path class="logo-white" fill="white" d="m336.7 71.086l-26.02 0.12 2.45-7.608h28.31l1.15-3.569h-20.12c-5.2 0-8.83-3.82-7.09-9.238 1.88-5.839 8.76-9.203 14.05-9.243l24.81-0.2-2.41 7.488-27.77 0.04-1.16 3.591h19.73c5.27 0 8.73 4.02 6.98 9.447-1.72 5.328-7.83 9.172-12.91 9.172" fill-rule="nonzero"/>
                <path class="logo-white" fill="white" d="m288.2 102.49h-20.94l4.59-14.324h20.94l-4.59 14.324zm8-1.56l3.53-11.008c1.6-5.004-1.06-9.494-5.93-9.494h-16.72c-4.8 0-11.18 3.287-12.95 8.815l-3.6 11.257c-1.76 5.47 0.75 9.48 6.04 9.48h17.65c4.75 0 10.37-4.01 11.98-9.05" fill-rule="nonzero"/>
                <path class="logo-white" fill="white" d="m66.033 93.208l5.766-18h4.8l-5.766 18h-4.8z" fill-rule="nonzero"/>
                <path class="logo-white" fill="white" d="m88.031 93.333c-1.393 0-2.425-0.763-3.063-1.745l-3.368-11.889-4.306 13.444-4.322-0.071 4.459-13.924c0.753-2.349 3.419-4.291 5.674-4.291 1.369 0 2.377 0.768 3.014 1.75l3.338 11.985 4.261-13.303h4.37l-4.177 13.039c-0.844 2.637-3.113 5.005-5.88 5.005" fill-rule="nonzero"/>
                <path class="logo-white" fill="white" d="m260.96 78.717l9.66-41.708 13.34-32.417-4.67 28.667-18.33 45.458z" fill-rule="nonzero"/>
                <path class="logo-white" fill="white" d="m197.96 31.842l78.33-2.917 70.17 3.917-69.75 3.375-78.75-4.375z" fill-rule="nonzero"/>
                <path class="logo-white" fill="white" d="m324.39 110.48c-2.33 0-4.05-1.28-5.11-2.92l-8.78-19.771-7.17 22.371-7.2-0.12 7.42-23.169c1.25-3.908 5.69-7.137 9.45-7.137 2.28 0 3.97 1.275 5.04 2.91l8.72 19.936 7.09-22.128h7.25l-6.94 21.688c-1.41 4.39-5.18 8.34-9.77 8.34" fill-rule="nonzero"/>
                <path class="logo-white" fill="white" d="m98.463 52.249c0.9-1.35 4.837-8.1-0.586-10.651-2.476-1.165-5.074-0.948-8.476-1.116-6.621-0.325-17.766 2.298-24.089 4.908-19.478 8.037-20.94 9.5-39.728 23.225-11.25 9.787-11.925 10.687-16.301 15.312-0.6501 0.743-0.9111 1-3.5251 3.618 2.614-5.543 3.118-6.171 7.5641-11.393 16.762-19.687 43.312-34.537 60.02-39.907 9.145-2.94 36.188-8.89 36.948 5.882l-0.15 2.463c-0.16 1.968-1.04 4.897-2.16 7.034l-2.2 3.663c-2.03 2.024-2.93 2.812-4.39 3.937-2.477 2.025-11.096 7.262-18.098 11.289 2.572-3.627 6.283-7.351 7.971-9.376 1.575-1.688 3.487-3.713 4.725-5.288" fill-rule="nonzero"/>
                <path class="logo-white" fill="white" d="m47.496 56.244l53.254-2.27 35.77 1.688-41.057 3.262-47.967-2.68z" fill-rule="nonzero"/>
                <path class="logo-white" fill="white" d="m338.33 105.55h0.52c0.6 0 1.1-0.22 1.1-0.77 0-0.4-0.29-0.8-1.1-0.8-0.23 0-0.39 0.02-0.52 0.04v1.53zm0 2.5h-0.72v-4.52c0.38-0.05 0.74-0.1 1.28-0.1 0.68 0 1.13 0.14 1.4 0.34 0.27 0.19 0.42 0.5 0.42 0.93 0 0.6-0.4 0.96-0.89 1.1v0.04c0.4 0.07 0.67 0.43 0.76 1.1 0.11 0.7 0.22 0.97 0.29 1.11h-0.76c-0.11-0.14-0.21-0.56-0.3-1.15-0.11-0.58-0.4-0.79-0.98-0.79h-0.5v1.94zm0.76-5.78c-1.79 0-3.24 1.53-3.24 3.42 0 1.93 1.45 3.44 3.25 3.44 1.8 0.02 3.24-1.51 3.24-3.42s-1.44-3.44-3.24-3.44h-0.01zm0.01-0.63c2.22 0 3.98 1.8 3.98 4.05 0 2.29-1.76 4.07-3.99 4.07-2.22 0-4.02-1.78-4.02-4.07 0-2.25 1.8-4.05 4.02-4.05h0.01z" fill-rule="nonzero"/>
                <path class="logo-white" fill="white" d="m232.85 123.93h2.85l-0.33-3.67-2.52 3.67zm4.25-5.58l1.15 9.56h-2.24l-0.18-2.28h-4.15l-1.55 2.28h-2.13l6.97-9.56h2.13z" fill-rule="nonzero"/>
                <path class="logo-white" fill="white" d="m247.04 123.38c-0.66 2.14-0.23 2.86 1.46 2.86h3.3l-0.51 1.67h-3.39c-1.16 0-2.02-0.1-2.72-0.84-0.75-0.79-0.84-2.04-0.32-3.77 1.04-3.38 2.94-4.95 6.02-4.95h3.34l-0.5 1.64h-3.3c-1.7 0-2.66 1.02-3.38 3.39" fill-rule="nonzero"/>
                <path class="logo-white" fill="white" d="m257.84 120.89c1.46 0 1.83 0.47 1.43 1.77l-0.36 1.17h-1.77l0.28-0.9c0.19-0.63 0-0.69-0.6-0.69h-0.66l-1.73 5.67h-1.85l2.15-7.02h3.11z" fill-rule="nonzero"/>
                <path class="logo-white" fill="white" d="m261.69 127.91c-2.01 0-2.69-0.73-2.13-2.57l1.36-4.44h1.85l-1.31 4.29c-0.29 0.93-0.12 1.17 0.85 1.17h1.49l1.68-5.46h1.84l-2.14 7.01h-3.49z" fill-rule="nonzero"/>
                <path class="logo-white" fill="white" d="m276.72 118.35l0.19 7.33 4.68-7.33h2.94l-2.92 9.56h-1.97l2.43-7.44-4.72 7.44h-2.13l-0.23-7.52-2.1 7.52h-2.05l2.92-9.56h2.96z" fill-rule="nonzero"/>
                <path class="logo-white" fill="white" d="m285.77 120.1l0.54-1.75h1.94l-0.53 1.75h-1.95zm-2.39 7.81l2.15-7.01h1.94l-2.14 7.01h-1.95z" fill-rule="nonzero"/>
                <path class="logo-white" fill="white" d="m292.56 120.89c2.07 0 2.71 0.71 2.14 2.57l-1.36 4.45h-1.85l1.29-4.22c0.3-0.97 0.21-1.25-0.84-1.25h-1.49l-1.68 5.47h-1.85l2.15-7.02h3.49z" fill-rule="nonzero"/>
                <path class="logo-white" fill="white" d="m297.29 120.1l0.54-1.75h1.94l-0.53 1.75h-1.95zm-2.39 7.81l2.15-7.01h1.94l-2.14 7.01h-1.95z" fill-rule="nonzero"/>
                <path class="logo-white" fill="white" d="m302.68 126.44c0.67 0 1.06-0.18 1.21-0.68 0.15-0.49-0.12-0.69-0.79-0.69h-1.6c-1.7 0-2.31-0.34-1.81-1.98 0.46-1.5 1.46-2.2 3.15-2.2h3.97l-0.44 1.47h-3.28c-0.84 0-1.29 0.05-1.47 0.64-0.13 0.44 0.09 0.62 0.69 0.62h1.67c1.55 0 2.13 0.75 1.72 2.09-0.4 1.32-1.48 2.2-2.59 2.2h-4.77l0.44-1.47h3.9z" fill-rule="nonzero"/>
                <path class="logo-white" fill="white" d="m309.1 120.89l0.78-2.54h1.85l-0.78 2.54h1.96l-0.43 1.4h-1.96l-0.86 2.84c-0.3 0.97-0.18 1.38 0.77 1.38h0.76l-0.43 1.4h-1.69c-1.34 0-1.88-0.76-1.44-2.2l1.04-3.42h-1.3l0.43-1.4h1.3z" fill-rule="nonzero"/>
                <path class="logo-white" fill="white" d="m317.11 120.89c1.46 0 1.82 0.47 1.43 1.77l-0.36 1.17h-1.77l0.27-0.9c0.2-0.63 0-0.69-0.6-0.69h-0.65l-1.73 5.67h-1.85l2.14-7.02h3.12z" fill-rule="nonzero"/>
                <path class="logo-white" fill="white" d="m323.07 126.36l1.67-5.47h1.85l-2.09 6.83c-0.56 1.84-1.67 2.73-3.46 2.73h-3.64l0.44-1.42h3.31c0.72 0 1.22-0.36 1.41-1 0.01-0.04 0.02-0.08 0.04-0.12h-1.64c-2.05 0-2.69-0.72-2.09-2.69l1.32-4.33h1.84l-1.28 4.18c-0.32 1.05-0.18 1.29 0.83 1.29h1.49z" fill-rule="nonzero"/>
        </g>
</svg>
